<?xml version="1.0" standalone="no"?><!DOCTYPE svg PUBLIC "-//W3C//DTD SVG 1.1//EN" "http://www.w3.org/Graphics/SVG/1.1/DTD/svg11.dtd"><svg t="1561531965851" class="icon" viewBox="0 0 1024 1024" version="1.1" xmlns="http://www.w3.org/2000/svg" p-id="5850" xmlns:xlink="http://www.w3.org/1999/xlink" width="200" height="200"><defs><style type="text/css"></style></defs><path d="M837.376 511.744c75.776 70.4 164.096 176.384 118.016 256.256-21.568 37.376-65.792 53.568-123.52 53.568-45.376 0-99.328-10.496-156.928-28.096C651.904 894.336 604.224 1024 512 1024c-77.184 0-131.712-96.832-162.496-230.144-48.96 15.04-106.752 28.48-158.464 28.48-52.864 0-99.136-14.016-122.432-54.336-38.592-66.88 17.92-162.496 117.952-255.744C110.784 441.856 22.464 335.872 68.608 256c20.864-36.224 75.328-72.96 215.68-43.072 20.672 4.48 42.56 10.624 64.768 17.408C372.16 129.472 419.712 0 512 0c77.184 0 131.712 96.768 162.56 230.08 98.816-30.4 234.752-53.952 280.832 25.856 38.592 66.88-17.92 162.56-118.016 255.808z m51.52 217.856c8.768-15.232-9.344-75.008-110.464-167.168a1384.064 1384.064 0 0 1-170.496 115.84c-3.2 1.92-6.528 3.392-9.792 5.248 164.992 70.528 275.392 72.768 290.752 46.08zM512 947.2c17.536 0 60.288-45.568 89.6-179.392-61.44-24-124.8-54.4-185.6-89.536-3.328-1.92-6.208-3.968-9.472-5.76C427.968 850.56 481.28 947.2 512 947.2zM245.568 461.568A1378.752 1378.752 0 0 1 416 345.728c3.328-1.92 6.528-3.456 9.856-5.376-55.936-23.872-109.632-42.112-157.568-52.352-91.328-19.456-127.04-4.352-133.12 6.4-8.832 15.168 9.216 74.944 110.4 167.168zM135.104 729.6c8.832 15.168 69.632 29.44 200-12.096A1381.12 1381.12 0 0 1 320 512.064c0-3.84 0.256-7.424 0.32-11.2C176.768 608.512 119.68 702.912 135.104 729.6zM614.464 512A102.4 102.4 0 1 0 409.6 512a102.4 102.4 0 0 0 204.8 0zM512 76.8c-17.6 0-60.416 45.568-89.6 179.392 60.16 23.552 122.944 53.376 185.472 89.472 3.328 1.92 6.272 3.904 9.472 5.824C596.032 173.44 542.784 76.8 512 76.8z m376.832 217.6c-8.768-15.168-69.696-29.376-200 12.032C698.88 371.584 704 441.792 704 512c0 3.84-0.256 7.296-0.32 11.072C847.232 415.424 904.32 321.024 888.96 294.4z" p-id="5851" fill="#61DAFB"></path></svg>
